<mxfile host="app.diagrams.net" modified="2023-09-22T11:42:14.297Z" agent="Mozilla/5.0 (Windows NT 10.0; Win64; x64) AppleWebKit/537.36 (KHTML, like Gecko) Chrome/116.0.0.0 Safari/537.36" version="21.8.0" etag="CjrcNo9yBtCpdz9YUpFZ" type="github">
  <diagram name="Страница — 1" id="ut1k9W539OEVo5grpkYx">
    <mxGraphModel>
      <root>
        <mxCell id="0" />
        <mxCell id="1" parent="0" />
      </root>
    </mxGraphModel>
  </diagram>
</mxfile>
